<?xml version="1.0" encoding="UTF-8" standalone="no"?>
<!DOCTYPE svg PUBLIC "-//W3C//DTD SVG 1.1//EN" "http://www.w3.org/Graphics/SVG/1.1/DTD/svg11.dtd">
<svg width="100%" height="100%" viewBox="0 0 637 312" version="1.1" xmlns="http://www.w3.org/2000/svg" xmlns:xlink="http://www.w3.org/1999/xlink" xml:space="preserve" xmlns:serif="http://www.serif.com/" style="fill-rule:evenodd;clip-rule:evenodd;stroke-linecap:round;stroke-linejoin:round;">
    <g transform="matrix(1,0,0,1,-315.208,-194.736)">
        <g transform="matrix(0.633448,0,0,0.389507,0,0)">
            <g transform="matrix(1,0,0,1,46.9069,-10.1935)">
                <g transform="matrix(1.57866,0,0,2.56735,-471.93,-1544.06)">
                    <g transform="matrix(144,0,0,144,570.903,1110.33)">
                        <path d="M0.716,-0.7L0.716,0L0.609,0L0.223,-0.474L0.223,0L0.094,0L0.094,-0.7L0.201,-0.7L0.587,-0.226L0.587,-0.7L0.716,-0.7Z" style="fill-rule:nonzero;"/>
                    </g>
                    <g transform="matrix(144,0,0,144,687.543,1110.33)">
                        <path d="M0.395,0.01C0.298,0.01 0.223,-0.017 0.169,-0.072C0.115,-0.126 0.088,-0.204 0.088,-0.305L0.088,-0.7L0.218,-0.7L0.218,-0.31C0.218,-0.173 0.277,-0.104 0.396,-0.104C0.514,-0.104 0.573,-0.173 0.573,-0.31L0.573,-0.7L0.701,-0.7L0.701,-0.305C0.701,-0.204 0.674,-0.126 0.621,-0.072C0.567,-0.017 0.492,0.01 0.395,0.01Z" style="fill-rule:nonzero;"/>
                    </g>
                    <g transform="matrix(144,0,0,144,799.287,1110.33)">
                        <path d="M0.236,-0.59L0.004,-0.59L0.004,-0.7L0.598,-0.7L0.598,-0.59L0.366,-0.59L0.366,0L0.236,0L0.236,-0.59Z" style="fill-rule:nonzero;"/>
                    </g>
                    <g transform="matrix(144,0,0,144,885.975,1110.33)">
                        <path d="M0.737,0L0.736,-0.464L0.506,-0.08L0.448,-0.08L0.218,-0.458L0.218,0L0.094,0L0.094,-0.7L0.201,-0.7L0.479,-0.236L0.752,-0.7L0.859,-0.7L0.86,0L0.737,0Z" style="fill-rule:nonzero;"/>
                    </g>
                    <g transform="matrix(144,0,0,144,1023.49,1110.33)">
                        <path d="M0.619,-0.109L0.619,0L0.094,0L0.094,-0.7L0.605,-0.7L0.605,-0.591L0.224,-0.591L0.224,-0.409L0.562,-0.409L0.562,-0.302L0.224,-0.302L0.224,-0.109L0.619,-0.109Z" style="fill-rule:nonzero;"/>
                    </g>
                    <g transform="matrix(144,0,0,144,1119.54,1110.33)">
                        <path d="M0.572,-0.358L0.695,-0.358L0.695,-0.079C0.659,-0.05 0.617,-0.028 0.569,-0.013C0.521,0.002 0.472,0.01 0.421,0.01C0.35,0.01 0.285,-0.005 0.228,-0.037C0.171,-0.068 0.126,-0.11 0.093,-0.165C0.06,-0.22 0.044,-0.281 0.044,-0.35C0.044,-0.419 0.06,-0.48 0.093,-0.535C0.126,-0.59 0.171,-0.632 0.229,-0.664C0.286,-0.695 0.351,-0.71 0.423,-0.71C0.482,-0.71 0.535,-0.7 0.583,-0.681C0.631,-0.662 0.671,-0.633 0.704,-0.596L0.622,-0.516C0.569,-0.569 0.504,-0.596 0.429,-0.596C0.38,-0.596 0.336,-0.586 0.298,-0.565C0.259,-0.544 0.229,-0.515 0.208,-0.478C0.186,-0.441 0.175,-0.398 0.175,-0.35C0.175,-0.303 0.186,-0.261 0.208,-0.224C0.229,-0.187 0.259,-0.157 0.298,-0.136C0.336,-0.115 0.379,-0.104 0.428,-0.104C0.483,-0.104 0.531,-0.116 0.572,-0.14L0.572,-0.358Z" style="fill-rule:nonzero;"/>
                    </g>
                </g>
                <g transform="matrix(0.697303,0,0,0.697303,368.193,330.258)">
                    <g transform="matrix(12.5884,0,0,20.4722,838.803,503.649)">
                        <g transform="matrix(1,0,0,1,-12,-12)">
                            <path d="M16,4L18,4C19.097,4 20,4.903 20,6L20,20C20,21.097 19.097,22 18,22L6,22C4.903,22 4,21.097 4,20L4,6C4,4.903 4.903,4 6,4L8,4" style="fill:none;fill-rule:nonzero;stroke:black;stroke-width:2px;"/>
                            <path d="M16,3C16,2.448 15.552,2 15,2L9,2C8.448,2 8,2.448 8,3L8,5C8,5.552 8.448,6 9,6L15,6C15.552,6 16,5.552 16,5L16,3Z" style="fill:none;stroke:black;stroke-width:2px;"/>
                        </g>
                    </g>
                    <g transform="matrix(12.5884,0,0,20.4722,1211.96,503.649)">
                        <g transform="matrix(1,0,0,1,-12,-12)">
                            <path d="M17,3C17.53,2.47 18.25,2.172 19,2.172C20.552,2.172 21.828,3.448 21.828,5C21.828,5.75 21.53,6.47 21,7L7.5,20.5L2,22L3.5,16.5L17,3Z" style="fill:none;fill-rule:nonzero;stroke:black;stroke-width:2px;"/>
                        </g>
                    </g>
                    <g transform="matrix(12.5884,0,0,20.4722,465.642,503.649)">
                        <g transform="matrix(1,0,0,1,-12,-12)">
                            <path d="M18,8L19,8C21.194,8 23,9.806 23,12C23,14.194 21.194,16 19,16L18,16" style="fill:none;fill-rule:nonzero;stroke:black;stroke-width:2px;"/>
                            <path d="M2,8L18,8L18,17C18,19.194 16.194,21 14,21L6,21C3.806,21 2,19.194 2,17L2,8Z" style="fill:none;fill-rule:nonzero;stroke:black;stroke-width:2px;"/>
                            <path d="M6,1L6,4" style="fill:none;fill-rule:nonzero;stroke:black;stroke-width:2px;"/>
                            <path d="M10,1L10,4" style="fill:none;fill-rule:nonzero;stroke:black;stroke-width:2px;"/>
                            <path d="M14,1L14,4" style="fill:none;fill-rule:nonzero;stroke:black;stroke-width:2px;"/>
                        </g>
                    </g>
                </g>
            </g>
        </g>
    </g>
</svg>
